<svg width="15" height="15" viewBox="0 0 15 15" fill="none" xmlns="http://www.w3.org/2000/svg">
<g filter="url(#filter0_i_29_303)">
<path d="M15 7.5C15 3.35744 11.6426 4.41025e-09 7.5 2.84103e-09C3.35744 1.27181e-09 -1.27181e-09 3.35744 -2.84103e-09 7.5C-4.25933e-09 11.2442 2.74219 14.3467 6.32812 14.9092L6.32812 9.66797L4.42381 9.66797L4.42381 7.5L6.32812 7.5L6.32812 5.84766C6.32812 3.96825 7.44728 2.92969 9.16113 2.92969C9.98144 2.92969 10.8398 3.07617 10.8398 3.07617L10.8398 4.92188L9.89356 4.92188C8.96191 4.92188 8.67187 5.5005 8.67187 6.09375L8.67187 7.5L10.7519 7.5L10.4194 9.66797L8.67187 9.66797L8.67187 14.9092C12.2578 14.3467 15 11.2442 15 7.5Z" fill="#1877F2"/>
<path d="M10.4194 9.66797L10.7519 7.5L8.67187 7.5L8.67187 6.09375C8.67187 5.5005 8.96191 4.92188 9.89356 4.92188L10.8398 4.92188L10.8398 3.07617C10.8398 3.07617 9.98144 2.92969 9.16113 2.92969C7.44728 2.92969 6.32813 3.96825 6.32813 5.84766L6.32813 7.5L4.42381 7.5L4.42381 9.66797L6.32813 9.66797L6.32813 14.9092C6.71044 14.9692 7.10156 15 7.5 15C7.89844 15 8.28956 14.9692 8.67187 14.9092L8.67187 9.66797L10.4194 9.66797Z" fill="white"/>
</g>
<defs>
<filter id="filter0_i_29_303" x="0" y="0" width="15" height="19" filterUnits="userSpaceOnUse" color-interpolation-filters="sRGB">
<feFlood flood-opacity="0" result="BackgroundImageFix"/>
<feBlend mode="normal" in="SourceGraphic" in2="BackgroundImageFix" result="shape"/>
<feColorMatrix in="SourceAlpha" type="matrix" values="0 0 0 0 0 0 0 0 0 0 0 0 0 0 0 0 0 0 127 0" result="hardAlpha"/>
<feOffset dy="4"/>
<feGaussianBlur stdDeviation="2"/>
<feComposite in2="hardAlpha" operator="arithmetic" k2="-1" k3="1"/>
<feColorMatrix type="matrix" values="0 0 0 0 0 0 0 0 0 0 0 0 0 0 0 0 0 0 0.25 0"/>
<feBlend mode="normal" in2="shape" result="effect1_innerShadow_29_303"/>
</filter>
</defs>
</svg>
