<svg width="15" height="15" viewBox="0 0 15 15" fill="none" xmlns="http://www.w3.org/2000/svg">
<path fill-rule="evenodd" clip-rule="evenodd" d="M7.51352 0.0562744C3.37959 0.0562744 0.0274048 3.46499 0.0274048 7.6702C0.0274048 11.0343 2.1724 13.8884 5.14687 14.8951C5.521 14.9656 5.65836 14.73 5.65836 14.5289C5.65836 14.3473 5.65141 13.7475 5.64819 13.1113C3.56555 13.5719 3.12608 12.2129 3.12608 12.2129C2.78555 11.3329 2.29488 11.0988 2.29488 11.0988C1.61567 10.6263 2.34608 10.636 2.34608 10.636C3.09782 10.6896 3.49364 11.4206 3.49364 11.4206C4.16133 12.5846 5.24493 12.2481 5.67212 12.0536C5.73931 11.5616 5.93331 11.2254 6.1474 11.0354C4.48464 10.8429 2.7367 10.19 2.7367 7.27252C2.7367 6.44124 3.02914 5.76202 3.50802 5.2288C3.4303 5.0369 3.17406 4.26261 3.58055 3.21383C3.58055 3.21383 4.20918 3.0092 5.63976 3.9943C6.23691 3.8256 6.87732 3.741 7.51352 3.7381C8.14972 3.741 8.79063 3.8256 9.38889 3.9943C10.8177 3.0092 11.4455 3.21383 11.4455 3.21383C11.853 4.26261 11.5966 5.0369 11.5189 5.2288C11.9989 5.76202 12.2893 6.44124 12.2893 7.27252C12.2893 10.1969 10.5381 10.8409 8.87108 11.0294C9.1396 11.2656 9.37885 11.729 9.37885 12.4394C9.37885 13.458 9.37017 14.278 9.37017 14.5289C9.37017 14.7315 9.50493 14.9689 9.88439 14.8941C12.8572 13.8862 14.9995 11.0331 14.9995 7.6702C14.9995 3.46499 11.6478 0.0562744 7.51352 0.0562744Z" fill="black"/>
<path fill-rule="evenodd" clip-rule="evenodd" d="M2.86278 10.9883C2.84629 11.0262 2.78778 11.0374 2.73447 11.0115C2.68017 10.9866 2.64968 10.9351 2.66728 10.8971C2.6834 10.8581 2.74203 10.8474 2.79621 10.8733C2.85063 10.8982 2.88162 10.9503 2.86278 10.9883Z" fill="black"/>
<path fill-rule="evenodd" clip-rule="evenodd" d="M3.166 11.3322C3.1303 11.3659 3.0605 11.3503 3.01315 11.297C2.96418 11.244 2.95501 11.173 2.99121 11.1388C3.02802 11.1051 3.09571 11.1209 3.1448 11.174C3.19377 11.2277 3.20331 11.2982 3.166 11.3322Z" fill="black"/>
<path fill-rule="evenodd" clip-rule="evenodd" d="M3.46117 11.7707C3.4153 11.8032 3.3403 11.7728 3.29393 11.7051C3.24807 11.6373 3.24807 11.5561 3.29493 11.5236C3.34141 11.4911 3.4153 11.5203 3.46228 11.5875C3.50802 11.6563 3.50802 11.7376 3.46117 11.7707Z" fill="black"/>
<path fill-rule="evenodd" clip-rule="evenodd" d="M3.86555 12.1944C3.82451 12.2404 3.73712 12.2281 3.67315 12.1653C3.60769 12.1039 3.58947 12.0167 3.63063 11.9707C3.67216 11.9246 3.76005 11.9376 3.82451 11.9998C3.88947 12.0611 3.90931 12.1489 3.86555 12.1944Z" fill="black"/>
<path fill-rule="evenodd" clip-rule="evenodd" d="M4.4234 12.4404C4.4053 12.5 4.32112 12.5271 4.23633 12.5018C4.15166 12.4757 4.09625 12.4058 4.11336 12.3456C4.13096 12.2856 4.2155 12.2573 4.30092 12.2844C4.38546 12.3104 4.441 12.3797 4.4234 12.4404Z" fill="black"/>
<path fill-rule="evenodd" clip-rule="evenodd" d="M5.03604 12.486C5.03815 12.5488 4.96625 12.6009 4.87724 12.6019C4.78774 12.604 4.71534 12.5532 4.71435 12.4915C4.71435 12.428 4.78464 12.3765 4.87414 12.3749C4.96315 12.3732 5.03604 12.4236 5.03604 12.486Z" fill="black"/>
<path fill-rule="evenodd" clip-rule="evenodd" d="M5.60617 12.3873C5.61683 12.4486 5.55497 12.5115 5.46658 12.5281C5.37968 12.5444 5.29922 12.5066 5.28819 12.4458C5.2774 12.383 5.34038 12.3201 5.42716 12.3038C5.51567 12.2882 5.59488 12.325 5.60617 12.3873Z" fill="black"/>
<path d="M7.64397 12.5423C8.34155 12.5423 11.1062 9.40687 11.1062 7.30477C11.1062 5.2926 9.53388 3.62488 7.64397 3.62488C5.65505 3.62488 4.08286 5.2926 4.08286 7.30477C4.08286 9.40687 6.84747 12.5423 7.64397 12.5423Z" fill="white"/>
<path d="M7.65508 9.21706C8.77448 9.21706 9.73154 8.26977 9.73154 7.16158C9.73154 5.93248 8.77448 4.98511 7.65508 4.98511C6.41342 4.98511 5.45645 5.93248 5.45645 7.16158C5.45645 8.26977 6.41342 9.21706 7.65508 9.21706Z" fill="#FFB2A8"/>
<path d="M6.75967 6.64765C7.22342 6.64765 7.59939 6.2755 7.59939 5.81642C7.59939 5.35725 7.22342 4.98511 6.75967 4.98511C6.29591 4.98511 5.91995 5.35725 5.91995 5.81642C5.91995 6.2755 6.29591 6.64765 6.75967 6.64765Z" fill="white"/>
</svg>
