<svg width="15" height="15" viewBox="0 0 15 15" fill="none" xmlns="http://www.w3.org/2000/svg">
<path d="M0.954545 13.8775L3.18182 13.8775L3.18182 8.08209L0 5.52527L-2.13984e-09 12.8548C-2.30481e-09 13.4199 0.427159 13.8775 0.954545 13.8775Z" fill="#4285F4"/>
<path d="M10.8182 13.8775L13.0454 13.8775C13.5728 13.8775 14 13.4199 14 12.8548L14 5.52527L10.8182 8.08209L10.8182 13.8775Z" fill="#34A853"/>
<path d="M10.8182 3.65024L10.8182 8.08206L14 5.52524L14 4.1616C14 2.89768 12.6533 2.17581 11.7091 2.93433L10.8182 3.65024Z" fill="#FBBC04"/>
<path fill-rule="evenodd" clip-rule="evenodd" d="M3.18182 8.08209L3.18182 3.65027L7.00001 6.71845L10.8182 3.65027L10.8182 8.08209L7.00001 11.1503L3.18182 8.08209Z" fill="#EA4335"/>
<path d="M-4.48679e-10 4.1616L-8.46789e-10 5.52524L3.18182 8.08206L3.18182 3.65024L2.29091 2.93433C1.3467 2.17581 0 2.89768 -4.48679e-10 4.1616Z" fill="#C5221F"/>
</svg>
