<svg width="16" height="16" viewBox="0 0 16 16" fill="none" xmlns="http://www.w3.org/2000/svg">
<path d="M0.0368347 7.68616C0.0368347 3.54402 3.3947 0.186157 7.53683 0.186157C11.679 0.186157 15.0368 3.54402 15.0368 7.68616C15.0368 11.8283 11.679 15.1862 7.53683 15.1862C3.3947 15.1862 0.0368347 11.8283 0.0368347 7.68616Z" fill="#0077B5"/>
<path fill-rule="evenodd" clip-rule="evenodd" d="M5.44895 4.81825C5.44895 5.3086 5.07985 5.70095 4.48721 5.70095L4.47634 5.70095C3.90573 5.70095 3.53683 5.3086 3.53683 4.81825C3.53683 4.31753 3.91696 3.93616 4.49841 3.93616C5.07985 3.93616 5.43792 4.31753 5.44895 4.81825ZM5.337 6.39798L5.337 11.5048L3.63734 11.5048L3.63734 6.39798L5.337 6.39798ZM11.4666 11.5048L11.4666 8.5767C11.4666 7.00811 10.6281 6.27807 9.50969 6.27807C8.60728 6.27807 8.20326 6.77373 7.97767 7.12145L7.97767 6.39812L6.2778 6.39812C6.30021 6.87731 6.2778 11.5049 6.2778 11.5049L7.97767 11.5049L7.97767 8.65286C7.97767 8.50023 7.9887 8.34798 8.03364 8.2387C8.15648 7.93379 8.43617 7.6181 8.90574 7.6181C9.52103 7.6181 9.76698 8.08638 9.76698 8.77264L9.76698 11.5048L11.4666 11.5048Z" fill="white"/>
</svg>
