<svg width="15" height="16" viewBox="0 0 15 16" fill="none" xmlns="http://www.w3.org/2000/svg">
<path d="M7.5 15.6248C11.6421 15.6248 15 12.2669 15 8.12476C15 3.98262 11.6421 0.624756 7.5 0.624756C3.35786 0.624756 3.50119e-08 3.98262 7.82013e-08 8.12476C1.21391e-07 12.2669 3.35786 15.6248 7.5 15.6248Z" fill="#34A4C6"/>
<path d="M7.64397 12.5421C8.34155 12.5421 11.1062 9.40675 11.1062 7.30465C11.1062 5.29247 9.53388 3.62476 7.64397 3.62476C5.65505 3.62476 4.08286 5.29247 4.08286 7.30465C4.08286 9.40675 6.84747 12.5421 7.64397 12.5421Z" fill="white"/>
<path d="M7.65508 9.21694C8.77448 9.21694 9.73154 8.26965 9.73154 7.16146C9.73154 5.93236 8.77448 4.98499 7.65508 4.98499C6.41342 4.98499 5.45645 5.93236 5.45645 7.16146C5.45645 8.26965 6.41342 9.21694 7.65508 9.21694Z" fill="#FFB2A8"/>
<path d="M6.75967 6.64752C7.22342 6.64752 7.59939 6.27538 7.59939 5.8163C7.59939 5.35713 7.22342 4.98499 6.75967 4.98499C6.29591 4.98499 5.91995 5.35713 5.91995 5.8163C5.91995 6.27538 6.29591 6.64752 6.75967 6.64752Z" fill="white"/>
</svg>
