<svg width="16" height="16" viewBox="0 0 16 16" fill="none" xmlns="http://www.w3.org/2000/svg">
<path d="M7.53674 0.0367432C11.6789 0.0367432 15.0367 3.39461 15.0367 7.53674C15.0367 11.6789 11.6789 15.0367 7.53674 15.0367C3.39461 15.0367 0.0367432 11.6789 0.0367432 7.53674C0.0367432 3.39461 3.39461 0.0367432 7.53674 0.0367432Z" fill="black"/>
<path d="M9.5349 6.58627C9.49841 6.28992 9.40733 6.05723 9.24557 5.85112C9.03553 5.58572 8.76711 5.4268 8.36971 5.33252C8.11072 5.26969 8.00609 5.2769 7.91242 5.36246C7.82517 5.44262 7.80814 5.60332 7.87481 5.70738C7.9217 5.78292 7.97579 5.80997 8.12624 5.83951C8.32659 5.87637 8.46504 5.92421 8.59099 5.99622C8.85831 6.15058 8.9828 6.39212 8.99613 6.78316C9.00236 6.96677 9.01822 7.02322 9.08235 7.08834C9.20121 7.20738 9.41274 7.18423 9.50248 7.04178C9.5354 6.98809 9.54042 6.96472 9.5439 6.84004C9.5462 6.76285 9.54288 6.64796 9.5349 6.58627Z" fill="white"/>
<path d="M10.5819 6.9204C10.5291 6.01248 10.174 5.28201 9.53845 4.76806C9.18036 4.47928 8.74752 4.2807 8.27307 4.18413C8.09927 4.14959 7.77928 4.12159 7.72438 4.13761C7.67258 4.15244 7.59931 4.20853 7.56665 4.25925C7.53212 4.31426 7.52433 4.43707 7.55379 4.50811C7.60134 4.62687 7.6898 4.66883 7.93753 4.6905C8.31944 4.72391 8.71335 4.85809 9.01098 5.05673C9.35077 5.28289 9.62087 5.59224 9.79562 5.95574C9.94659 6.26807 10.0395 6.71816 10.0369 7.12122C10.036 7.267 10.0585 7.34932 10.1172 7.40951C10.2056 7.50206 10.3346 7.52229 10.4485 7.46082C10.5746 7.39448 10.6041 7.27801 10.5819 6.9204Z" fill="white"/>
<path d="M11.7406 10.4168C11.7228 10.3649 11.6814 10.2849 11.6518 10.2389C11.4652 9.95728 10.4631 9.17304 9.96283 8.91657C9.67715 8.76982 9.46548 8.72091 9.30858 8.76684C9.13983 8.8143 9.05101 8.89285 8.76829 9.2442C8.65433 9.38504 8.53739 9.51698 8.5063 9.53772C8.42932 9.59109 8.27834 9.6341 8.17177 9.6341C7.92457 9.6326 7.47607 9.4725 7.13117 9.26198C6.86326 9.09893 6.51987 8.80689 6.25637 8.5178C5.94551 8.17832 5.73387 7.87887 5.56659 7.54086C5.35049 7.10651 5.29572 6.84114 5.386 6.64693C5.40821 6.59802 5.43782 6.54614 5.45112 6.52981C5.46445 6.51501 5.6036 6.40085 5.75753 6.27632C6.0595 6.03617 6.10835 5.98132 6.16459 5.81677C6.23564 5.60773 6.21641 5.39426 6.10687 5.17931C6.02249 5.01623 5.80194 4.66045 5.64208 4.43067C5.43041 4.12826 4.90345 3.48191 4.79834 3.39442C4.60888 3.24026 4.36615 3.21356 4.0982 3.31735C3.81551 3.42706 3.28557 3.854 3.0591 4.15198C2.85483 4.42178 2.7764 4.61301 2.76455 4.86503C2.75419 5.07256 2.77195 5.15855 2.88149 5.42392C3.73853 7.50528 5.01742 9.16711 6.77445 10.4865C7.69218 11.1758 8.64395 11.7006 9.63126 12.0594C10.2071 12.2684 10.4572 12.2788 10.7518 12.1068C10.8761 12.0327 11.184 11.7169 11.3557 11.4872C11.6399 11.1047 11.745 10.9283 11.7746 10.7874C11.7953 10.6911 11.779 10.5236 11.7406 10.4168Z" fill="white"/>
<path d="M11.6478 7.1289C11.6289 6.61532 11.5424 6.19407 11.3621 5.7244C11.1841 5.26241 11.0039 4.96093 10.6637 4.55317C10.342 4.17085 10.0922 3.95256 9.6959 3.70956C9.14305 3.371 8.47024 3.14696 7.71624 3.05273C7.4591 3.0198 7.40093 3.02215 7.32205 3.07479C7.16917 3.1745 7.17121 3.42321 7.32457 3.52143C7.37533 3.55268 7.42037 3.56406 7.62606 3.59098C7.9418 3.63349 8.14483 3.67355 8.38574 3.73928C9.33043 3.99753 10.0569 4.52538 10.5426 5.30897C10.949 5.96209 11.1177 6.61526 11.0938 7.44947C11.0855 7.73149 11.0915 7.78112 11.1346 7.84888C11.2172 7.97518 11.4349 8.00015 11.5466 7.89535C11.6161 7.83149 11.6292 7.78353 11.6429 7.54216C11.6494 7.41624 11.6508 7.23036 11.6478 7.1289Z" fill="white"/>
</svg>
